<svg height="512pt" viewBox="0 -63 512 511" width="512pt" xmlns="http://www.w3.org/2000/svg"><path d="m108.332031 66.546875c0 15.304687-12.242187 27.710937-27.34375 27.710937h-20.511719c-15.101562 0-27.34375-12.40625-27.34375-27.710937v-6.925781c0-15.304688 12.242188-27.710938 27.34375-27.710938h20.511719c15.101563 0 27.34375 12.40625 27.34375 27.710938zm0 0" fill="#ffc843"/><path d="m463.144531 59.621094h-101.382812l-19.132813-33.578125c-6.242187-10.957031-17.78125-17.707031-30.265625-17.707031h-112.726562c-12.484375 0-24.023438 6.75-30.265625 17.707031l-19.132813 33.578125h-101.382812c-22.652344 0-41.019531 18.609375-41.019531 41.5625v235.515625c0 22.957031 18.367187 41.5625 41.019531 41.5625h414.289062c22.652344 0 41.019531-18.609375 41.019531-41.5625v-235.515625c0-22.953125-18.367187-41.5625-41.019531-41.5625zm0 0" fill="#76ffd9"/><path d="m7.835938 288.207031v48.496094c0 22.953125 18.367187 41.5625 41.019531 41.5625h414.289062c22.652344 0 41.019531-18.609375 41.019531-41.5625v-48.496094zm0 0" fill="#fff"/><path d="m463.144531 59.621094h-31.871093c22.65625 0 41.019531 18.609375 41.019531 41.5625v235.515625c0 22.957031-18.363281 41.5625-41.019531 41.5625h31.871093c22.652344 0 41.019531-18.609375 41.019531-41.5625v-235.515625c0-22.953125-18.367187-41.5625-41.019531-41.5625zm0 0" fill="#fff"/><path d="m50.15625 101.183594c0-22.953125 18.363281-41.5625 41.015625-41.5625h-42.316406c-22.652344 0-41.019531 18.609375-41.019531 41.5625v187.023437h42.320312zm0 0" fill="#5de0bf"/><path d="m50.15625 336.699219v-48.492188h-42.320312v48.492188c0 22.957031 18.367187 41.5625 41.019531 41.5625h42.316406c-22.652344.003906-41.015625-18.605469-41.015625-41.5625zm0 0" fill="#d8e0ea"/><path d="m379.148438 297.410156c0-19.542968-15.636719-35.390625-34.929688-35.390625-19.289062 0-34.929688 15.847657-34.929688 35.390625 0 19.546875 15.640626 35.394532 34.929688 35.394532 19.292969 0 34.929688-15.847657 34.929688-35.394532zm0 0" fill="#76ffd9"/><path d="m365.351562 228.609375c0-61.195313-48.957031-110.800781-109.351562-110.800781s-109.351562 49.605468-109.351562 110.800781c0 61.191406 48.957031 110.796875 109.351562 110.796875s109.351562-49.605469 109.351562-110.796875zm0 0" fill="#fff"/><path d="m333.9375 228.609375c0-43.613281-34.894531-78.96875-77.9375-78.96875s-77.9375 35.355469-77.9375 78.96875c0 43.609375 34.894531 78.964844 77.9375 78.964844s77.9375-35.355469 77.9375-78.964844zm0 0" fill="#ffc843"/><path d="m220.097656 264.511719c20.09375 20.09375 52.457032 20.308593 72.289063.476562s19.617187-52.195312-.476563-72.289062c-20.089844-20.09375-52.457031-20.304688-72.289062-.476563-19.828125 19.832032-19.617188 52.195313.476562 72.289063zm0 0" fill="#969ba1"/><path d="m315.664062 67.179688c0 8.902343-7.121093 16.121093-15.910156 16.121093h-87.507812c-8.785156 0-15.910156-7.21875-15.910156-16.121093v-8.0625c0-8.902344 7.121093-16.121094 15.910156-16.121094h87.507812c8.785156 0 15.910156 7.21875 15.910156 16.121094zm0 0" fill="#76ffd9"/><path d="m457.382812 124.042969c0-11.3125-9.050781-20.484375-20.214843-20.484375-11.167969 0-20.21875 9.171875-20.21875 20.484375s9.050781 20.484375 20.21875 20.484375c11.164062 0 20.214843-9.171875 20.214843-20.484375zm0 0" fill="#ffa816"/><path d="m279.933594 236.445312c-4.328125 0-7.835938-3.511718-7.835938-7.835937 0-9.050781-7.222656-16.414063-16.097656-16.414063-4.328125 0-7.835938-3.507812-7.835938-7.835937s3.507813-7.835937 7.835938-7.835937c17.519531 0 31.769531 14.390624 31.769531 32.085937 0 4.324219-3.507812 7.835937-7.835937 7.835937zm0 0" fill="#fff"/><path d="m463.144531 51.785156h-96.828125l-16.875-29.621094c-7.617187-13.363281-21.824218-21.664062-37.078125-21.664062h-112.726562c-15.257813 0-29.460938 8.300781-37.074219 21.664062l-16.878906 29.621094h-30.386719c-3.542969-15.839844-17.574219-27.710937-34.308594-27.710937h-20.511719c-18.828124 0-34.246093 15.023437-35.140624 33.824219-15.085938 8.417968-25.335938 24.660156-25.335938 43.285156v235.519531c0 27.238281 21.917969 49.398437 48.855469 49.398437h414.289062c26.9375 0 48.855469-22.160156 48.855469-49.398437v-235.519531c0-27.238282-21.917969-49.398438-48.855469-49.398438zm-402.667969-12.035156h20.511719c8.023438 0 14.929688 4.964844 17.917969 12.035156h-50.050781c-2.195313 0-4.351563.160156-6.472657.445313 2.886719-7.304688 9.902344-12.480469 18.09375-12.480469zm435.851563 296.949219c0 18.597656-14.886719 33.726562-33.183594 33.726562h-414.289062c-18.296875 0-33.183594-15.128906-33.183594-33.726562v-40.65625h143.972656c21.171875 30.914062 56.464844 51.199219 96.355469 51.199219 22.09375 0 42.777344-6.222657 60.433594-17.027344 7.476562 6.484375 17.179687 10.425781 27.785156 10.425781 23.582031 0 42.765625-19.394531 42.765625-43.230469 0-.457031-.007813-.914062-.023437-1.367187h109.367187zm-240.328125-5.128907c-55.976562 0-101.515625-46.1875-101.515625-102.960937s45.539063-102.964844 101.515625-102.964844 101.515625 46.191407 101.515625 102.964844-45.539063 102.960937-101.515625 102.960937zm106.808594-54.160156c5.226562 5.023438 8.503906 12.125 8.503906 20 0 15.195313-12.152344 27.558594-27.09375 27.558594-5.304688 0-10.253906-1.570312-14.433594-4.265625 14.070313-11.574219 25.453125-26.378906 33.023438-43.292969zm133.519531 2.960938h-112.808594c-3.199219-7.503906-8.449219-13.910156-15.023437-18.511719 3.046875-10.554687 4.691406-21.710937 4.691406-33.25 0-65.417969-52.570312-118.636719-117.1875-118.636719s-117.1875 53.21875-117.1875 118.636719c0 18.546875 4.230469 36.109375 11.757812 51.761719h-134.898437v-179.1875c0-18.597656 14.886719-33.726563 33.183594-33.726563h105.9375l21.386719-37.53125c4.832031-8.484375 13.820312-13.75 23.457031-13.75h112.726562c9.636719 0 18.625 5.269531 23.457031 13.75l21.386719 37.53125h105.9375c18.296875 0 33.183594 15.128907 33.183594 33.726563zm0 0" fill="#434c54"/></svg>