<svg height="512pt" viewBox="0 0 512 512" width="512pt" xmlns="http://www.w3.org/2000/svg"><path d="m512 256c0 141.386719-114.613281 256-256 256s-256-114.613281-256-256 114.613281-256 256-256 256 114.613281 256 256zm0 0" fill="#0065a3"/><path d="m425.921875 204.195312-100.113281 100.113282-86.167969-86.167969-16.449219 16.453125-107.089844-107.09375-39.949218 39.945312 33.179687 119.601563-36.023437 97.429687 119.703125 119.707032c20.152343 5.097656 41.253906 7.816406 62.988281 7.816406 130.457031 0 238.121094-97.585938 253.984375-223.738281zm0 0" fill="#005285"/><path d="m438.757812 234.582031v21.417969l-112.296874 21.417969-49.046876-7.28125-97.085937-14.136719v-21.417969c0-23.558593 19.277344-42.832031 42.832031-42.832031h172.761719c23.558594 0 42.835937 19.273438 42.835937 42.832031zm0 0" fill="#deecf1"/><path d="m438.757812 234.582031v21.417969l-112.296874 21.417969-49.046876-7.28125v-78.386719h118.507813c23.558594 0 42.835937 19.273438 42.835937 42.832031zm0 0" fill="#c6e2e7"/><path d="m395.921875 341.667969 21.417969-21.417969 21.417968 21.417969v42.832031h-42.835937zm0 0" fill="#ff7816"/><path d="m94.660156 256h344.09375v85.667969h-344.09375zm0 0" fill="#ff9f00"/><path d="m277.417969 256h161.339843v85.667969h-161.339843zm0 0" fill="#ff7816"/><path d="m180.328125 256h-64.25v-32.125c0-17.742188 14.382813-32.125 32.125-32.125s32.125 14.382812 32.125 32.125zm0 0" fill="#00abe9"/><path d="m73.242188 127.5h42.835937v257h-42.835937zm0 0" fill="#ff9f00"/></svg>