<?xml version="1.0" encoding="iso-8859-1"?>
<!-- Generator: Adobe Illustrator 19.0.0, SVG Export Plug-In . SVG Version: 6.00 Build 0)  -->
<svg version="1.1" id="Capa_1" xmlns="http://www.w3.org/2000/svg" xmlns:xlink="http://www.w3.org/1999/xlink" x="0px" y="0px"
	 viewBox="0 0 512 512" style="enable-background:new 0 0 512 512;" xml:space="preserve">
<path style="fill:#965028;" d="M512,355.439v0.575h-5.495C508.391,356.014,510.226,355.812,512,355.439z"/>
<path style="fill:#AA6432;" d="M506.505,356.014c1.885,0,3.721-0.202,5.495-0.575v0.575H506.505z"/>
<path style="fill:#FFCC4D;" d="M494.043,255.811c0,98.136-57.956,183.527-142.228,222.496
	C189.657,553.464,4.04,434.216,4.04,255.811C4.04,120.5,113.731,10.81,249.042,10.81C384.604,10.81,494.043,120.732,494.043,255.811
	z"/>
<g>
	<path style="fill:#80391B;" d="M115.085,358.252c-7.128,0-12.958,5.832-12.958,12.958v40.315c0,7.128,5.831,12.958,12.958,12.958
		s12.958-5.831,12.958-12.958V371.21C128.043,364.084,122.212,358.252,115.085,358.252z"/>
	<path style="fill:#80391B;" d="M493.337,274.414c-1.422,18.986-5.021,37.397-10.557,54.971
		c-2.874,9.115-6.251,17.998-10.133,26.629H81.97V229.757c0-48.165,39.051-87.216,87.226-87.216h19.772
		c17.907,0,34.866,5.566,48.992,15.366c12.593,8.732,22.928,20.821,29.674,35.32c12.372,26.639,36.379,55.869,81.378,66.234
		c29.512,6.806,92.661,11.192,128.686,11.192C483.325,270.653,488.648,272.004,493.337,274.414z"/>
</g>
<path style="fill:#965028;" d="M477.699,270.653c5.626,0,10.95,1.351,15.638,3.761c-1.422,18.986-5.021,37.397-10.557,54.971
	c-2.874,9.115-6.251,17.998-10.133,26.629H107.883v-110.9c0-48.165,39.051-87.206,87.226-87.206h42.852
	c12.593,8.732,22.928,20.821,29.674,35.32c12.372,26.639,36.379,55.869,81.378,66.234
	C378.524,266.267,441.673,270.653,477.699,270.653z"/>
<path style="fill:#AA6432;" d="M482.78,329.385c-2.874,9.115-6.251,17.998-10.133,26.629c-4.114,9.185-8.782,18.068-13.965,26.619
	H88.443c-14.65,0-26.629-11.978-26.629-26.619c0-6.292,2.218-12.099,5.908-16.667c0.595-0.746,1.23-1.462,1.916-2.138
	c4.82-4.82,11.484-7.824,18.804-7.824H482.78z"/>
<path style="fill:#B9783D;" d="M482.78,329.385c-2.874,9.115-6.251,17.998-10.133,26.629H92.396
	c-11.121,0-20.72-6.927-24.673-16.667c0.595-0.746,1.23-1.462,1.916-2.138c4.82-4.82,11.484-7.824,18.804-7.824H482.78z"/>
<path style="fill:#69280F;" d="M283.154,211.642c-3.572,18.35-8.653,53.804-3.503,88.741c0.956,6.494,2.264,12.975,4.005,19.328
	c1.498,5.469-3.221,10.609-8.791,9.597c-25.837-4.713-85.559-13.193-127.619-0.523c-5.568,1.681-10.901-3.207-9.729-8.9
	c4.374-21.305,10.335-64.082-0.582-105.425c-1.511-5.731,3.691-10.958,9.418-9.423c5.505,1.477,12.544,3.087,20.881,4.419
	c25.548,4.131,63.24,5.776,106.22-6.643C278.973,201.212,284.246,206,283.154,211.642z"/>
<path style="fill:#80391B;" d="M283.154,211.642c-3.572,18.35-8.653,53.804-3.503,88.741c-29.833-4.029-73.402-7.016-106.225,2.871
	c-5.558,1.681-10.891-3.207-9.72-8.9c3.639-17.786,8.4-50.523,3.529-84.899c25.548,4.131,63.24,5.776,106.22-6.643
	C278.973,201.212,284.246,206,283.154,211.642z"/>
<g>
	
		<rect x="360.522" y="19.547" transform="matrix(-0.6974 -0.7166 0.7166 -0.6974 589.496 325.9362)" style="fill:#69280F;" width="6.059" height="37.962"/>
	
		<rect x="390.916" y="19.553" transform="matrix(0.6974 -0.7166 0.7166 0.6974 91.5763 293.9767)" style="fill:#69280F;" width="6.059" height="37.962"/>
</g>
<g>
	<path style="fill:#80391B;" d="M475.485,57.672v114.81c0,0.768-0.089,1.516-0.259,2.235c-1.01,4.394-4.945,7.669-9.645,7.669
		H295.387c-4.079,0-7.584-2.466-9.104-5.995c-0.513-1.197-0.801-2.523-0.801-3.909V57.672c0-1.096,0.177-2.155,0.513-3.141
		c1.31-3.929,5.021-6.764,9.391-6.764h170.194c4.993,0,9.12,3.695,9.803,8.498C475.453,56.726,475.485,57.195,475.485,57.672z"/>
	<path style="fill:#80391B;" d="M392.9,23.225c0,2.276-0.61,4.406-1.682,6.242c-2.151,3.691-6.152,6.173-10.733,6.173
		c-6.856,0-12.415-5.559-12.415-12.415c0-6.303,4.694-11.505,10.777-12.306c0.533-0.073,1.084-0.109,1.637-0.109
		C387.341,10.81,392.9,16.369,392.9,23.225z"/>
</g>
<path style="fill:#965028;" d="M392.9,23.225c0,2.276-0.61,4.406-1.682,6.242c-0.533,0.073-1.084,0.109-1.637,0.109
	c-6.856,0-12.415-5.559-12.415-12.415c0-2.276,0.61-4.406,1.682-6.242c0.533-0.073,1.084-0.109,1.637-0.109
	C387.341,10.81,392.9,16.369,392.9,23.225z"/>
<g>
	<path style="fill:#69280F;" d="M380.485,115.077l-94.201,61.314c-0.513-1.197-0.801-2.523-0.801-3.909V57.672
		c0-1.096,0.177-2.155,0.513-3.141L380.485,115.077z"/>
	<path style="fill:#69280F;" d="M475.485,57.672v114.81c0,0.768-0.089,1.516-0.259,2.235l-94.743-59.641l94.9-58.812
		C475.453,56.726,475.485,57.195,475.485,57.672z"/>
</g>
<path style="fill:#82AAF0;" d="M454.656,61.707H306.312c-4.338,0-7.853,3.516-7.853,7.853v91.034c0,4.338,3.516,7.853,7.853,7.853
	h148.345c4.338,0,7.853-3.516,7.853-7.853V69.56C462.51,65.223,458.994,61.707,454.656,61.707z"/>
<path style="fill:#DDB200;" d="M438.926,111.165c-0.359-0.372-0.768-0.708-1.238-1.001c-15.321-9.556-27.25-10.013-35.879-7.421
	c10.89-9.809,12.025-25.255,11.488-34.851c-0.037-0.68-0.172-1.313-0.391-1.895c-1.224-3.287-5.032-4.86-8.426-3.054
	c-15.945,8.496-22.301,18.604-24.367,27.376c-3.046-14.34-15.856-23.051-24.437-27.385c-0.284-0.144-0.568-0.261-0.852-0.359
	c-3.794-1.299-7.7,1.308-7.844,5.521c-0.615,18.051,4.957,28.608,11.519,34.785c-10.489-3.406-20.981-0.434-28.958,3.489
	c-2.626,1.29-4.977,2.682-6.969,3.985c-3.785,2.476-3.72,7.714,0.121,10.112c15.322,9.557,27.254,10.015,35.883,7.422
	c-10.886,9.809-12.027,25.252-11.487,34.85c0.251,4.516,4.819,7.076,8.813,4.949c2.579-1.373,4.907-2.789,7.007-4.237
	c0,0,0.005-0.009,0.009-0.005c10.874-7.492,15.619-15.78,17.351-23.131c3.049,14.339,15.861,23.046,24.441,27.381
	c3.748,1.895,7.896-0.274,8.595-4.223c0.055-0.302,0.089-0.615,0.098-0.941c0.616-18.05-4.954-28.61-11.514-34.786
	c12.96,4.209,25.923-1.319,34.143-6.346c0.624-0.382,1.22-0.759,1.783-1.126C441.137,118.102,441.491,113.799,438.926,111.165z"/>
<path style="fill:#EBB410;" d="M375.695,115.583c0,0-2.086,3.282-6.313,6.624c-7.928,6.285-23.389,12.793-46.69-1.741
	c-3.841-2.398-3.906-7.635-0.121-10.112c1.992-1.304,4.344-2.695,6.969-3.985C341.99,100.247,360.565,96.439,375.695,115.583z"/>
<path style="fill:#FFE13C;" d="M375.695,115.583c0,0-2.086,3.282-6.313,6.624c-8.78,3.664-21.718,4.422-38.944-6.322
	c-3.561-2.22-3.878-6.88-0.898-9.516C341.99,100.247,360.565,96.439,375.695,115.583z"/>
<g>
	<path style="fill:#EBB410;" d="M413.4,162.533c-0.009,0.326-0.042,0.638-0.098,0.941c-0.699,3.947-4.847,6.117-8.595,4.223
		c-12.197-6.164-32.951-21.164-22.039-48.622c0,0,2.407,0.107,5.875,1.117C397.753,122.878,414.443,131.97,413.4,162.533z"/>
	<path style="fill:#EBB410;" d="M362.915,163.446c-0.005-0.005-0.009,0.005-0.009,0.005c-2.099,1.448-4.427,2.864-7.007,4.237
		c-3.995,2.127-8.561-0.433-8.813-4.949c-0.661-11.779,1.201-32.365,20.512-40.531c3.063-1.299,6.569-2.281,10.573-2.868
		C378.172,119.34,391.053,144.061,362.915,163.446z"/>
</g>
<g>
	<path style="fill:#FFE13C;" d="M362.915,163.446c-0.005-0.005-0.009,0.005-0.009,0.005c-3.799,1.462-7.835-1.062-8.077-5.293
		c-0.554-9.963,0.689-26.224,12.77-35.95c3.063-1.299,6.569-2.281,10.573-2.868C378.172,119.34,391.053,144.061,362.915,163.446z"/>
	<path style="fill:#FFE13C;" d="M413.4,162.533c-0.009,0.326-0.042,0.638-0.098,0.941c-0.284-0.098-0.568-0.214-0.852-0.359
		c-11.327-5.722-30.029-19.064-23.906-42.923C397.753,122.878,414.443,131.97,413.4,162.533z"/>
</g>
<path style="fill:#EBB410;" d="M439.019,119.26c-0.345,0.372-0.745,0.712-1.206,1.015c-0.564,0.368-1.159,0.745-1.783,1.126
	c-11.015,6.736-30.545,14.372-47.17-1.722c-0.945-0.907-1.876-1.895-2.798-2.965c-0.466-0.535-0.922-1.089-1.378-1.667
	c0,0,1.43-2.244,4.311-4.911c7.147-6.615,23.241-15.847,48.692,0.028c0.47,0.293,0.88,0.628,1.238,1.001
	C441.137,113.436,441.18,116.942,439.019,119.26z"/>
<path style="fill:#FFE13C;" d="M439.019,119.26c-0.345,0.372-0.745,0.712-1.206,1.015c-0.564,0.368-1.159,0.745-1.783,1.126
	c-11.015,6.736-30.545,14.372-47.17-1.722c0.279-0.274,0.573-0.559,0.889-0.852c7.147-6.615,23.241-15.847,48.692,0.028
	C438.647,118.981,438.838,119.116,439.019,119.26z"/>
<path style="fill:#EBB410;" d="M392.608,108.493c-3.022,1.266-6.471,2.225-10.4,2.798c0,0-14.879-28.552,22.272-48.348
	c3.394-1.807,7.202-0.233,8.426,3.054c0.219,0.582,0.354,1.215,0.391,1.895C413.958,79.702,412.087,100.378,392.608,108.493z"/>
<path style="fill:#FFE13C;" d="M392.608,108.493c-2.458-8.129-4.842-27.393,20.298-42.496c0.219,0.582,0.354,1.215,0.391,1.895
	C413.958,79.702,412.087,100.378,392.608,108.493z"/>
<path style="fill:#EBB410;" d="M379.578,105.862c-0.47,1.834-1.089,3.734-1.867,5.694c0,0-32.165-1.392-30.731-43.46
	c0.144-4.214,4.05-6.82,7.844-5.521c0.284,0.098,0.568,0.214,0.852,0.359C367.003,68.655,385.709,82.002,379.578,105.862z"/>
<path style="fill:#FFE13C;" d="M379.578,105.862c-9.209-2.695-25.894-11.793-24.851-42.347c0.009-0.326,0.042-0.638,0.098-0.941
	c0.284,0.098,0.568,0.214,0.852,0.359C367.003,68.655,385.709,82.002,379.578,105.862z"/>
<path style="fill:#DC550A;" d="M398.363,117.041c0,7.783-4.471,14.517-10.991,17.778c-2.67,1.343-5.688,2.095-8.882,2.095
	c-10.969,0-19.865-8.896-19.865-19.873c0-10.976,8.896-19.873,19.865-19.873c3.194,0,6.211,0.752,8.882,2.095
	C393.894,102.524,398.363,109.258,398.363,117.041z"/>
<path style="fill:#FF640A;" d="M398.363,117.041c0,7.783-4.471,14.517-10.991,17.778c-6.521-3.253-10.998-9.988-10.998-17.778
	c0-7.79,4.478-14.524,10.998-17.778C393.894,102.524,398.363,109.258,398.363,117.041z"/>
<path style="fill:#B9783D;" d="M59.818,88.961v322.518c-5.253-6.322-10.184-12.916-14.781-19.782V88.961
	c0-4.063,3.327-7.391,7.391-7.391c2.037,0,3.882,0.837,5.223,2.168C58.981,85.08,59.818,86.925,59.818,88.961z"/>
<path style="fill:#6092E0;" d="M94.372,113.089H10.483c-8.742,0-13.602-11.101-8.248-18.744
	C17.39,72.718,17.692,47.42,16.593,34.595c-0.02-0.242-0.03-0.484-0.03-0.726c0-4.184,3.085-7.653,6.947-7.653h57.835
	c4.084,0,7.3,3.882,6.917,8.379c-0.302,3.519-0.494,7.986-0.313,13.047c0.504,13.39,3.68,31.015,14.67,46.703
	C107.974,101.988,103.114,113.089,94.372,113.089z"/>
<path style="fill:#82AAF0;" d="M94.372,113.089H25.315c2.027-34.292,28.746-61.959,62.634-65.447
	c0.504,13.39,3.68,31.015,14.67,46.703C107.974,101.988,103.114,113.089,94.372,113.089z"/>
<path style="fill:#6092E0;" d="M15.122,129.733L15.122,129.733c-1.848,0-3.361-1.512-3.361-3.361v-22.899
	c0-1.848,1.512-3.361,3.361-3.361l0,0c1.848,0,3.361,1.512,3.361,3.361v22.899C18.483,128.221,16.97,129.733,15.122,129.733z"/>
<circle style="fill:#82AAF0;" cx="15.122" cy="128.273" r="6.049"/>
<g>
</g>
<g>
</g>
<g>
</g>
<g>
</g>
<g>
</g>
<g>
</g>
<g>
</g>
<g>
</g>
<g>
</g>
<g>
</g>
<g>
</g>
<g>
</g>
<g>
</g>
<g>
</g>
<g>
</g>
</svg>
