<svg height="512pt" viewBox="0 0 512 512" width="512pt" xmlns="http://www.w3.org/2000/svg"><path d="m512 256c0 141.386719-114.613281 256-256 256s-256-114.613281-256-256 114.613281-256 256-256 256 114.613281 256 256zm0 0" fill="#966442"/><path d="m512 256c0-44.105469-11.15625-85.601562-30.796875-121.832031l-103.371094-103.371094-4.46875 78.011719-108.644531-108.644532-4.800781 130.339844-108.308594-108.3125-11.277344 79.546875-37.191406 70.039063 80.34375 92.625-123.484375 8.203125 83.332031 83.332031-60.011719 30.660156 119.953126 119.953125c17.015624 3.5625 34.652343 5.449219 52.726562 5.449219 141.386719 0 256-114.613281 256-256zm0 0" fill="#66402d"/><path d="m277 170.253906c0 11.597656-9.402344 21-21 21s-21-9.402344-21-21 9.402344-21 21-21 21 9.402344 21 21zm0 0" fill="#ffda00"/><path d="m256 149.253906c-.0625 0-.125.007813-.191406.011719v41.976563c.066406 0 .128906.011718.191406.011718 11.597656 0 21-9.402344 21-21s-9.402344-21-21-21zm0 0" fill="#fdba12"/><path d="m83.320312 256.105469h345.359376v130.492187h-345.359376zm0 0" fill="#e6e6e6"/><path d="m255.808594 256.105469h172.871094v130.492187h-172.871094zm0 0" fill="#d7d7d7"/><path d="m60 223.105469h392v49.5h-392zm0 0" fill="#fff"/><path d="m255.808594 223.105469h196.191406v49.5h-196.191406zm0 0" fill="#e9edf5"/><path d="m264.71875.164062c-2.894531-.0976558-5.796875-.164062-8.71875-.164062s-5.824219.0664062-8.71875.164062v117.238282h17.4375zm0 0" fill="#ffda00"/><path d="m264.71875.164062c-2.894531-.0976558-5.796875-.164062-8.71875-.164062-.0625 0-.128906.00390625-.191406.00390625v117.39843775h8.914062v-117.238282zm0 0" fill="#fdba12"/><path d="m295.746094 171.777344h-79.492188v-48.75c0-21.953125 17.792969-39.746094 39.746094-39.746094s39.746094 17.792969 39.746094 39.746094zm0 0" fill="#fff"/><path d="m295.746094 123.027344c0-21.949219-17.792969-39.746094-39.746094-39.746094-.0625 0-.128906.003906-.191406.003906v88.492188h39.9375zm0 0" fill="#e9edf5"/><path d="m390.109375 170.253906c0 11.597656-9.402344 21-21 21s-21-9.402344-21-21 9.402344-21 21-21 21 9.402344 21 21zm0 0" fill="#fdba12"/><path d="m360.390625 22.191406v95.210938h17.441406v-86.605469c-5.6875-3.082031-11.507812-5.949219-17.441406-8.605469zm0 0" fill="#fdba12"/><path d="m408.859375 171.777344h-79.496094v-48.75c0-21.953125 17.792969-39.746094 39.746094-39.746094s39.75 17.792969 39.75 39.746094zm0 0" fill="#e9edf5"/><path d="m163.890625 170.253906c0 11.597656-9.402344 21-21 21s-21-9.402344-21-21 9.402344-21 21-21 21 9.402344 21 21zm0 0" fill="#ffda00"/><path d="m134.167969 30.796875v86.601563h17.441406v-95.207032c-5.933594 2.65625-11.753906 5.523438-17.441406 8.605469zm0 0" fill="#ffda00"/><path d="m182.636719 171.777344h-79.496094v-48.75c0-21.953125 17.796875-39.746094 39.75-39.746094s39.746094 17.792969 39.746094 39.746094zm0 0" fill="#fff"/></svg>